<?xml version="1.0" encoding="UTF-8" standalone="no"?>
<!DOCTYPE svg PUBLIC "-//W3C//DTD SVG 1.1//EN"
 "http://www.w3.org/Graphics/SVG/1.1/DTD/svg11.dtd">
<!-- Generated by graphviz version 2.26.3 (20100126.1600)
 -->
<!-- Title: G Pages: 1 -->
<svg width="708pt" height="978pt"
 viewBox="0.00 0.00 708.00 978.00" xmlns="http://www.w3.org/2000/svg" xmlns:xlink="http://www.w3.org/1999/xlink">
<g id="graph1" class="graph" transform="scale(1 1) rotate(0) translate(4 974)">
<title>G</title>
<polygon fill="white" stroke="white" points="-4,5 -4,-974 705,-974 705,5 -4,5"/>
<g id="graph2" class="cluster"><title>cluster_Global</title>
<polyline fill="none" stroke="gray" points="316,-228 680,-228 "/>
<path fill="none" stroke="gray" d="M680,-228C686,-228 692,-234 692,-240"/>
<polyline fill="none" stroke="gray" points="692,-240 692,-950 "/>
<path fill="none" stroke="gray" d="M692,-950C692,-956 686,-962 680,-962"/>
<polyline fill="none" stroke="gray" points="680,-962 316,-962 "/>
<path fill="none" stroke="gray" d="M316,-962C310,-962 304,-956 304,-950"/>
<polyline fill="none" stroke="gray" points="304,-950 304,-240 "/>
<path fill="none" stroke="gray" d="M304,-240C304,-234 310,-228 316,-228"/>
<text text-anchor="middle" x="498" y="-948.1" font-family="Times Roman,serif" font-size="11.00" fill="gray">\</text>
</g>
<g id="graph3" class="cluster"><title>cluster_\Fuel</title>
<polyline fill="none" stroke="gray" points="578,-820 644,-820 "/>
<path fill="none" stroke="gray" d="M644,-820C650,-820 656,-826 656,-832"/>
<polyline fill="none" stroke="gray" points="656,-832 656,-920 "/>
<path fill="none" stroke="gray" d="M656,-920C656,-926 650,-932 644,-932"/>
<polyline fill="none" stroke="gray" points="644,-932 578,-932 "/>
<path fill="none" stroke="gray" d="M578,-932C572,-932 566,-926 566,-920"/>
<polyline fill="none" stroke="gray" points="566,-920 566,-832 "/>
<path fill="none" stroke="gray" d="M566,-832C566,-826 572,-820 578,-820"/>
<text text-anchor="middle" x="611" y="-918.1" font-family="Times Roman,serif" font-size="11.00" fill="gray">Fuel</text>
</g>
<g id="graph4" class="cluster"><title>cluster_\Fuel\Tasks</title>
<polyline fill="none" stroke="gray" points="586,-828 636,-828 "/>
<path fill="none" stroke="gray" d="M636,-828C642,-828 648,-834 648,-840"/>
<polyline fill="none" stroke="gray" points="648,-840 648,-890 "/>
<path fill="none" stroke="gray" d="M648,-890C648,-896 642,-902 636,-902"/>
<polyline fill="none" stroke="gray" points="636,-902 586,-902 "/>
<path fill="none" stroke="gray" d="M586,-902C580,-902 574,-896 574,-890"/>
<polyline fill="none" stroke="gray" points="574,-890 574,-840 "/>
<path fill="none" stroke="gray" d="M574,-840C574,-834 580,-828 586,-828"/>
<text text-anchor="middle" x="611" y="-888.1" font-family="Times Roman,serif" font-size="11.00" fill="gray">Tasks</text>
</g>
<!-- \\Fuel\\Tasks\\Robots -->
<g id="node4" class="node"><title>\\Fuel\\Tasks\\Robots</title>
<polygon fill="none" stroke="black" points="639,-872 583,-872 583,-836 639,-836 639,-872"/>
<text text-anchor="middle" x="611" y="-851.1" font-family="Courier,monospace" font-size="11.00">Robots</text>
</g>
<!-- \\Controller_Update -->
<g id="node5" class="node"><title>\\Controller_Update</title>
<polygon fill="none" stroke="black" points="676,-758 546,-758 546,-722 676,-722 676,-758"/>
<text text-anchor="middle" x="611" y="-737.1" font-family="Courier,monospace" font-size="11.00">Controller_Update</text>
</g>
<!-- \\Controller -->
<g id="node18" class="node"><title>\\Controller</title>
<ellipse fill="none" stroke="black" cx="388" cy="-202" rx="67.1751" ry="18.3848"/>
<text text-anchor="middle" x="388" y="-198.4" font-family="Times Roman,serif" font-size="14.00" fill="gray">\Controller</text>
</g>
<!-- \\Controller_Update&#45;&gt;\\Controller -->
<g id="edge5" class="edge"><title>\\Controller_Update&#45;&gt;\\Controller</title>
<path fill="none" stroke="black" d="M547.392,-721.874C543.907,-719.299 540.724,-716.359 538,-713 399.636,-542.374 611.023,-389.004 466,-224 463.126,-220.73 459.808,-217.93 456.195,-215.533"/>
<polygon fill="none" stroke="black" points="457.747,-212.392 447.298,-210.64 454.374,-218.526 457.747,-212.392"/>
</g>
<!-- \\Controller_Root -->
<g id="node6" class="node"><title>\\Controller_Root</title>
<polygon fill="none" stroke="black" points="670,-596 552,-596 552,-560 670,-560 670,-596"/>
<text text-anchor="middle" x="611" y="-575.1" font-family="Courier,monospace" font-size="11.00">Controller_Root</text>
</g>
<!-- \\Controller_Template -->
<g id="node20" class="node"><title>\\Controller_Template</title>
<ellipse fill="none" stroke="black" cx="119" cy="-156" rx="118.794" ry="18.3848"/>
<text text-anchor="middle" x="119" y="-152.4" font-family="Times Roman,serif" font-size="14.00" fill="gray">\Controller_Template</text>
</g>
<!-- \\Controller_Root&#45;&gt;\\Controller_Template -->
<g id="edge7" class="edge"><title>\\Controller_Root&#45;&gt;\\Controller_Template</title>
<path fill="none" stroke="black" d="M551.985,-562.665C546.735,-559.482 541.931,-555.64 538,-551 428.015,-421.179 594.125,-286.956 466,-175 432.622,-145.835 323.249,-143.89 236.112,-147.526"/>
<polygon fill="none" stroke="black" points="235.706,-144.04 225.872,-147.983 236.018,-151.033 235.706,-144.04"/>
</g>
<!-- \\Controller_Welcome -->
<g id="node7" class="node"><title>\\Controller_Welcome</title>
<polygon fill="none" stroke="black" points="680,-704 542,-704 542,-668 680,-668 680,-704"/>
<text text-anchor="middle" x="611" y="-683.1" font-family="Courier,monospace" font-size="11.00">Controller_Welcome</text>
</g>
<!-- \\Controller_Welcome&#45;&gt;\\Controller -->
<g id="edge9" class="edge"><title>\\Controller_Welcome&#45;&gt;\\Controller</title>
<path fill="none" stroke="black" d="M547.461,-667.818C543.959,-665.257 540.753,-662.334 538,-659 413.219,-507.899 596.676,-370.033 466,-224 463.097,-220.756 459.757,-217.975 456.127,-215.592"/>
<polygon fill="none" stroke="black" points="457.658,-212.44 447.203,-210.725 454.306,-218.586 457.658,-212.44"/>
</g>
<!-- \\Model_Books -->
<g id="node8" class="node"><title>\\Model_Books</title>
<polygon fill="none" stroke="black" points="656,-542 566,-542 566,-506 656,-506 656,-542"/>
<text text-anchor="middle" x="611" y="-521.1" font-family="Courier,monospace" font-size="11.00">Model_Books</text>
</g>
<!-- \\Model_Crud -->
<g id="node23" class="node"><title>\\Model_Crud</title>
<ellipse fill="none" stroke="black" cx="388" cy="-110" rx="77.7817" ry="18.3848"/>
<text text-anchor="middle" x="388" y="-106.4" font-family="Times Roman,serif" font-size="14.00" fill="gray">\Model_Crud</text>
</g>
<!-- \\Model_Books&#45;&gt;\\Model_Crud -->
<g id="edge11" class="edge"><title>\\Model_Books&#45;&gt;\\Model_Crud</title>
<path fill="none" stroke="black" d="M565.282,-515.052C555.043,-511.068 545.121,-505.312 538,-497 433.266,-374.735 568.574,-266.082 466,-142 461.551,-136.618 456.052,-132.131 450.048,-128.392"/>
<polygon fill="none" stroke="black" points="451.41,-125.148 440.955,-123.432 448.058,-131.293 451.41,-125.148"/>
</g>
<!-- \\Controller_Hello -->
<g id="node9" class="node"><title>\\Controller_Hello</title>
<polygon fill="none" stroke="black" points="673,-650 549,-650 549,-614 673,-614 673,-650"/>
<text text-anchor="middle" x="611" y="-629.1" font-family="Courier,monospace" font-size="11.00">Controller_Hello</text>
</g>
<!-- \\Controller_Hello&#45;&gt;\\Controller -->
<g id="edge13" class="edge"><title>\\Controller_Hello&#45;&gt;\\Controller</title>
<path fill="none" stroke="black" d="M548.211,-614.219C544.431,-611.562 540.966,-608.509 538,-605 426.764,-473.378 582.369,-351.106 466,-224 463.061,-220.789 459.693,-218.034 456.042,-215.669"/>
<polygon fill="none" stroke="black" points="457.544,-212.503 447.082,-210.834 454.22,-218.663 457.544,-212.503"/>
</g>
<!-- \\Controller_Validate -->
<g id="node10" class="node"><title>\\Controller_Validate</title>
<polygon fill="none" stroke="black" points="683,-380 539,-380 539,-344 683,-344 683,-380"/>
<text text-anchor="middle" x="611" y="-359.1" font-family="Courier,monospace" font-size="11.00">Controller_Validate</text>
</g>
<!-- \\Controller_Validate&#45;&gt;\\Controller_Template -->
<g id="edge15" class="edge"><title>\\Controller_Validate&#45;&gt;\\Controller_Template</title>
<path fill="none" stroke="black" d="M548.567,-343.904C544.704,-341.321 541.123,-338.37 538,-335 458.822,-249.567 558.993,-153.145 466,-83 370.517,-10.9771 220.112,-90.3123 153.136,-132.755"/>
<polygon fill="none" stroke="black" points="151.144,-129.875 144.632,-138.232 154.934,-135.76 151.144,-129.875"/>
</g>
<!-- \\Model_Message -->
<g id="node11" class="node"><title>\\Model_Message</title>
<polygon fill="none" stroke="black" points="663,-488 559,-488 559,-452 663,-452 663,-488"/>
<text text-anchor="middle" x="611" y="-467.1" font-family="Courier,monospace" font-size="11.00">Model_Message</text>
</g>
<!-- \\Model_Message&#45;&gt;\\Model_Crud -->
<g id="edge17" class="edge"><title>\\Model_Message&#45;&gt;\\Model_Crud</title>
<path fill="none" stroke="black" d="M558.72,-457.959C550.939,-454.237 543.65,-449.368 538,-443 446.716,-340.103 555.466,-246.481 466,-142 461.288,-136.497 455.481,-131.925 449.18,-128.131"/>
<polygon fill="none" stroke="black" points="450.81,-125.033 440.338,-123.424 447.52,-131.212 450.81,-125.033"/>
</g>
<!-- \\View_Welcome_404 -->
<g id="node12" class="node"><title>\\View_Welcome_404</title>
<polygon fill="none" stroke="black" points="673,-326 549,-326 549,-290 673,-290 673,-326"/>
<text text-anchor="middle" x="611" y="-305.1" font-family="Courier,monospace" font-size="11.00">View_Welcome_404</text>
</g>
<!-- \\ViewModel -->
<g id="node28" class="node"><title>\\ViewModel</title>
<ellipse fill="none" stroke="black" cx="388" cy="-18" rx="70.9184" ry="18.3848"/>
<text text-anchor="middle" x="388" y="-14.4" font-family="Times Roman,serif" font-size="14.00" fill="gray">\ViewModel</text>
</g>
<!-- \\View_Welcome_404&#45;&gt;\\ViewModel -->
<g id="edge19" class="edge"><title>\\View_Welcome_404&#45;&gt;\\ViewModel</title>
<path fill="none" stroke="black" d="M548.657,-289.82C544.773,-287.256 541.163,-284.332 538,-281 463.966,-203.004 538.655,-129.282 466,-50 460.716,-44.2335 454.239,-39.4801 447.297,-35.5681"/>
<polygon fill="none" stroke="black" points="448.818,-32.4152 438.311,-31.05 445.673,-38.6692 448.818,-32.4152"/>
</g>
<!-- \\Controller_Books -->
<g id="node13" class="node"><title>\\Controller_Books</title>
<polygon fill="none" stroke="black" points="673,-812 549,-812 549,-776 673,-776 673,-812"/>
<text text-anchor="middle" x="611" y="-791.1" font-family="Courier,monospace" font-size="11.00">Controller_Books</text>
</g>
<!-- \\Controller_Protected -->
<g id="node15" class="node"><title>\\Controller_Protected</title>
<polygon fill="none" stroke="black" points="464,-543 312,-543 312,-507 464,-507 464,-543"/>
<text text-anchor="middle" x="388" y="-522.1" font-family="Courier,monospace" font-size="11.00">Controller_Protected</text>
</g>
<!-- \\Controller_Books&#45;&gt;\\Controller_Protected -->
<g id="edge21" class="edge"><title>\\Controller_Books&#45;&gt;\\Controller_Protected</title>
<path fill="none" stroke="black" d="M551.363,-775.877C546.613,-773.28 542.081,-770.335 538,-767 464.948,-707.308 417.45,-602.117 398.006,-552.444"/>
<polygon fill="none" stroke="black" points="401.234,-551.086 394.387,-543.001 394.697,-553.591 401.234,-551.086"/>
</g>
<!-- \\Model_Users -->
<g id="node14" class="node"><title>\\Model_Users</title>
<polygon fill="none" stroke="black" points="656,-434 566,-434 566,-398 656,-398 656,-434"/>
<text text-anchor="middle" x="611" y="-413.1" font-family="Courier,monospace" font-size="11.00">Model_Users</text>
</g>
<!-- \\Model_Users&#45;&gt;\\Model_Crud -->
<g id="edge23" class="edge"><title>\\Model_Users&#45;&gt;\\Model_Crud</title>
<path fill="none" stroke="black" d="M565.381,-406.477C555.262,-402.512 545.369,-396.909 538,-389 460.05,-305.341 542.472,-227.013 466,-142 461.087,-136.539 455.103,-131.989 448.656,-128.203"/>
<polygon fill="none" stroke="black" points="450.12,-125.019 439.635,-123.5 446.884,-131.226 450.12,-125.019"/>
</g>
<!-- \\Controller_Protected&#45;&gt;\\Controller_Template -->
<g id="edge25" class="edge"><title>\\Controller_Protected&#45;&gt;\\Controller_Template</title>
<path fill="none" stroke="black" d="M311.883,-508.381C309.126,-506.751 306.484,-504.962 304,-503 195.432,-417.239 142.82,-249.801 125.608,-183.748"/>
<polygon fill="none" stroke="black" points="128.998,-182.878 123.146,-174.045 122.213,-184.599 128.998,-182.878"/>
</g>
<!-- \\View_Welcome_Hello -->
<g id="node16" class="node"><title>\\View_Welcome_Hello</title>
<polygon fill="none" stroke="black" points="680,-272 542,-272 542,-236 680,-236 680,-272"/>
<text text-anchor="middle" x="611" y="-251.1" font-family="Courier,monospace" font-size="11.00">View_Welcome_Hello</text>
</g>
<!-- \\View_Welcome_Hello&#45;&gt;\\ViewModel -->
<g id="edge27" class="edge"><title>\\View_Welcome_Hello&#45;&gt;\\ViewModel</title>
<path fill="none" stroke="black" d="M602.564,-235.866C583.522,-196.745 533.547,-103.635 466,-50 459.171,-44.5773 451.295,-39.9454 443.231,-36.03"/>
<polygon fill="none" stroke="black" points="444.646,-32.8288 434.091,-31.9098 441.769,-39.2103 444.646,-32.8288"/>
</g>
</g>
</svg>
